/* XPM */
static char *fb34fb71bef041eee6d31dfdcc3b9d3djpCywEQWCYgXhwxJ[] = {
/* columns rows colors chars-per-pixel */
"50 50 137 2 ",
"   c #F8C189",
".  c #FDCE98",
"X  c #FDCC96",
"o  c #FED09C",
"O  c #FBC993",
"+  c #FFD3A2",
"@  c #FAC891",
"#  c #F8C088",
"$  c #F8C08A",
"%  c #F8C089",
"&  c #F8C48E",
"*  c #FED29F",
"=  c #F8C38D",
"-  c #FFD7A7",
";  c #F8C18B",
":  c #F9C78F",
">  c #FECF9A",
",  c #F7C18B",
"<  c #F9C58E",
"1  c #FFDEB1",
"2  c #FFE0B2",
"3  c #FFD6A5",
"4  c #FFDCAC",
"5  c #FFD4A3",
"6  c #FE9F15",
"7  c #FFDCAF",
"8  c #FCCC95",
"9  c #FED19E",
"0  c #FFE4B8",
"q  c #FFD9AA",
"w  c #FED6A5",
"e  c #FD9A14",
"r  c #FD9512",
"t  c #F6C28B",
"y  c #FFE2B3",
"u  c #FFD9A8",
"i  c #FD8710",
"p  c #FC9013",
"a  c #977F65",
"s  c #D3B591",
"d  c #52443C",
"f  c #45403E",
"g  c #FC8C10",
"h  c #F97A12",
"j  c #FFCF96",
"k  c #F77012",
"l  c #A55727",
"z  c #EF8E27",
"x  c #F5971B",
"c  c #FDA41C",
"v  c #F7C088",
"b  c #FB8111",
"n  c #A98C6E",
"m  c #EF7216",
"M  c #E8C69B",
"N  c #F1CB9E",
"B  c #EA832D",
"V  c #C86320",
"C  c #DEB788",
"Z  c #B59574",
"A  c #DD8828",
"S  c #E6781E",
"D  c #C09C75",
"F  c #C6A37D",
"G  c #B88D60",
"H  c #F28C1A",
"J  c #C16222",
"K  c #7B4A31",
"L  c #BDA182",
"P  c #D06623",
"I  c #F3D4A9",
"U  c #A96631",
"Y  c #FCE6BD",
"T  c #EE8420",
"R  c #E0C29C",
"E  c #F3821A",
"W  c #996132",
"Q  c #874D2F",
"!  c #F69D2D",
"~  c #EB801E",
"^  c #DC7323",
"/  c #A58464",
"(  c #F27A1B",
")  c #C5AA8A",
"_  c #C98735",
"`  c #EB952D",
"'  c #DC6A1E",
"]  c #D9AF81",
"[  c #FFA324",
"{  c #CEAD87",
"}  c #976D49",
"|  c #E7BF8F",
" . c #F78814",
".. c #F39729",
"X. c #F0C391",
"o. c #9F5329",
"O. c #AE5A27",
"+. c #6E5544",
"@. c #FE9520",
"#. c #BC8756",
"$. c #CB7326",
"%. c #AA7C51",
"&. c #885537",
"*. c #91502D",
"=. c #FB8B1D",
"-. c #F19633",
";. c #E66D1A",
":. c #BD823A",
">. c #D8BD97",
",. c #C97F30",
"<. c #F8D2A1",
"1. c #87684F",
"2. c #C69562",
"3. c #60463A",
"4. c #AC9579",
"5. c #AB7342",
"6. c #B97A3D",
"7. c #DB9451",
"8. c #8C7159",
"9. c #705C4C",
"0. c #6A4838",
"q. c #EA9939",
"w. c #F09D38",
"e. c #E9CFA4",
"r. c #E27C2D",
"t. c #BA6929",
"y. c #E3932E",
"u. c #D2A777",
"i. c #8E7761",
"p. c #7A6453",
"a. c #FBAF32",
"s. c #FFDEB1",
"d. c #E38F39",
"f. c #FBC485",
"g. c #BC702C",
"h. c #F6CB99",
"j. c #F3A441",
/* pixels */
",                                       v #   % %                                                   ",
", v v v v v v v v v v     v v v v v v #             v v v v v v v v v v           $ $ $ v v v v v v ",
"$ v v v v v v v v v v   v v v v v , = < < : @ @ : < < & t , v v v v v v     v v % $ $ $ $ v v v v v ",
"$ v v v v v v   v v $ $ $ $ $ ; < @ @ O 8 8 8 8 8 8 O O @ : & = t v v v $ , t , $ $ $ $ $   $ $ v v ",
"% v v v v v v   v v v $ $ ; = @ O 8 8 X . . . . . . X X 8 8 O @ : & & = , t t v , $ $ $ v v $ $ v v ",
"v v v v v v v v v v # v , : @ 8 X > o o o > . . o o o > . X X 8 8 8 O O @ : = t $ $ $ v v v v v v v ",
"v v v v v v v v v v v , @ O . 8 X.X.X.C Z D D Z n D | . o o o o > > . X 8 O @ < = ; $ v v v v v v v ",
"v v v v v v v v v $ = O 8 > h.{ { D Z s >.M I M >.F / Z | | | h.* 9 o o > . 8 O : = ; v v v v v v v ",
"v v v v v v v v $ < O X . o F >.2 e.Y Y 0 Y 0 0 0 0 N n D G / D 5 5 + * * o . X O @ < ;     v v v v ",
"v v v v v v v   & O X > o ] n I y y 0 0 w <.<.4 0 <.] u.| u . G F w 3 w 5 + 9 > . 8 O <   v v v v v ",
"v v v v v % $ = O X > * | n ] ] C C N M G #.#.2.u.G F u.2.D ] #.1.M q - w 5 + * o . 8 @ = $ $ $ v v ",
"v v v v v $ , @ X o 9 5 { ) 4 C ] | u.G s I I N C | y 0 * 2.5.5.} 4.4 q - - 5 + 9 o X O : , $ $ v v ",
"    v v v t < 8 > 9 + 3 { L y Y 0 0 4 R Y Y 0 0 0 0 0 0 y f.7.7.6.p.s u q - - 5 + * > X @ = $ $ v v ",
"v v v v v , O . o + 3 u s 4.1 Y 0 0 0 e.Y 0 y 0 0 s.y 0 0 : 7.7.6.3.+.i.4.N u 3 5 + o . O & , $ v v ",
"v v v v   < X > 9 5 3 u s n 4 w * 4 4 e.4 4 1 u j f.f.4 1 v 7.7.6.0.t.g.&.i.N - 5 + 9 > 8 < ; $ v   ",
"  v v v ; O . o + 3 - q s a C 2.2.G #./ G G G %.%.#.#.#.G %.%.5.U 3.*.V T U i.<.3 5 9 > 8 : , $ $   ",
"  v v v < 8 > 9 + 3 - 4 s } ,.O.O.O.l l l l l o.o.l l l l o.*.l *.p.4.p.$.@.W L - 5 * o X @ , $ $   ",
"v     , : X o * 5 3 u 4 s g.@.h k k k ( -.B ( -.z B ( k k k P ' *.4.y R 1.y.` } M 3 + o X @ = ;     ",
"v v v , O . 9 + w - q 7 R 5.@.T r.k k B B B ` ! T S m k k m d.r.&.) 2 2 s 5.[ 6.F 3 + o . O = ; $   ",
"v v v = O > * 5 3 - q 7 I %...B r.( h ~ r.m ~ T ~ -.w.m ( ^ B ^ &.>.2 1 I %.! _ a 5 + o . O = ; % v ",
"v v v = 8 o * 5 3 u 4 7 7 / ` ~ S b b S B z ~ p e ` j.r.m ;.' P &.R 2 7 1 D y.y.8.<.+ 9 . O = , v v ",
"v v v & 8 o * 5 - q 4 7 s.n A @.( g H w.a.a.q.p r E ~ E b h ;.;.1.e.2 7 1 { _ -.8.N + 9 . O = , v v ",
"v v v & 8 o * 5 w q 4 7 1 Z _ [ H e q.a.! z T p r i g p i h S ^ 1.I 1 7 1 s :.! } N + 9 . O = , v v ",
"$ $ $ & X o + w - q 7 7 2 F _ [ x c ` w.A x r 6 6 r r e g  .( $.a 7 1 7 1 s :.! } N + 9 . O = ; v v ",
"$ $ $ & 8 o + 3 - q 4 7 1 s :.[ x c A A x 6 e e e 6 c 6 e H E t.L 2 1 7 1 s 6.` 1.N + 9 . O = $ v v ",
"v v v = 8 o + 5 3 - q 4 1 R :.[ x c A x c e r E -...6 6 e H =.U ) y 1 7 1 s :.A 8.<.+ 9 > O = ; v v ",
"v v v = O > * + 3 - u q 7 M :.[ ..c x -...x e z ! z x 6 e H =.U ) y 1 7 1 { _ g.a w 5 9 > O = ,   v ",
"v v v , @ > 9 + 3 w - u 4 M _ [ ..c c z B x 6 ..q.z e r p x =.U L 2 7 7 1 { y.W L u 5 9 > O = ,     ",
"  v v   @ . 9 + 5 w w - 4 M _ [ z c c x H 6 6 6 x 6 r i i  .=.U L 2 7 7 I 2.A +.R u 5 9 > O = ,     ",
"v v v v : 8 o * 5 w w - 4 C _ @.T T 6 e r r 6 e 6 6 r r p b =.t.n 7 7 7 F A W i.w - 5 9 . O = ,   v ",
"v v   v & 8 > * + 3 w - 4 F ,.@.T H ! z ..H e e 6 e g r p h E $.p.R M D ,.$.9.R 4 - 5 9 . O = , $ v ",
"v v   v = O . 9 + 3 w u 7 L ,.=.~ ` w.d.! ~ 6 c 6 r r e i k m ^ 0.} 6.A $.+.) 7 q - 5 * . O = ; v v ",
"v v   # ; O . 9 + 3 - q 7 L $.E ( E S A q.` c 6 6 e 6 6 i k ;.^ K S S l 9.) s.7 q 3 5 9 . O = $ v v ",
"v v v v   : X o + 3 - q 7 ) U S m i p H z z x 6 p g r e i k ' P 3.K +.a R 2 1 7 q 3 + 9 . @ , $ v v ",
"v v v v v < 8 o + 5 3 q 7 >.W P ;.b p  .m ~ r e p p b p h m V l +.4.R s.2 1 7 4 u 3 + 9 X @ ,   v v ",
"v v v v v = O > * 5 w u 4 I 8.J P ( i g g p g g g i b i h ' O.K n 2 2 1 1 7 7 q - w + o 8 : , $ v v ",
", v v v v   @ . 9 + 5 w u 4 { &.V S b p p g i i h h g p h V o.9.R 2 1 1 7 7 7 q w + 9 > 8 < ; $ v v ",
", v v v v % < O > * + 5 w q w 8.O.' b r r g i i b b i i h O.Q 4.2 1 1 7 7 7 q - 5 * o X O & ; $ v v ",
"$ v v     % = @ X o 9 + w - q / K l ' E  . . . . .h m ;.P o.Q ) y 1 7 7 4 q - 5 * 9 > 8 @ =   v v v ",
"$ v v v v v , & O X > 9 + 5 N 1.&.Q O.J J J J V V V V J o.K o./ 7 1 1 4 q - 5 + o > X O : ,   v v v ",
"$ v v v v v v , < O X . o 9 F 5.P *.t.~ r.$.J J J V P ' P K *.&.Z s >.N 5 5 * o . 8 O @ & , v v v v ",
"v v v v v v v   ; : O 8 X./ +.U Q 3.Q t.,.d.z S ^ ^ ^ ' J Q K Q d d d 9.a C o . 8 O @ & ; $ $ $ v v ",
"v v v v v v v % $ ; < @ @ ] Z %.0.d 3.0.K W U W W W *.Q K 0.d d f f f f i.C . 8 O @ & t , $ $ $ v v ",
"v v v v v v v v %   ; & @ X j F 8.9.3.d d d d d d d d f f f f f f f f f 9.n O O @ & t t   $ % $ v v ",
"v v v v v v v v       , = : O O & X.| C F Z n / a a a a a a a a a n Z D ] X.@ @ & t v v       $ v v ",
"v v v v v v v v     $ $ , = & @ O 8 8 X j j j j j > > > . . . j j j X X 8 @ : = t v v v v v   $ v v ",
"$ $ v v v v v v           ; , = & : @ @ O O O O O 8 8 8 8 8 O O @ @ : : & & t ,   v v #   v v   v v ",
"$ $ v v v v v v           ; ; , t = & & : : @ @ @ @ @ @ @ @ : : : & & t , , ,       v     v v   v v ",
"$ $ v v v v v v         $ ; ; ; , , , , ; = = & & & & & & & & , t t , ; ; ;               v v v v v ",
"$ $ v v v v v v     $ $ $ $ v   ;             t t , t t , , , , , , $ $ ; ;             v v v v v v "
};
