/* XPM */
static char *c3dc031a33f44e8ad9da1e1e6542fa3aTUfbVca6X64ggV3q[] = {
/* columns rows colors chars-per-pixel */
"45 45 237 2 ",
"   c #010101",
".  c #0A0302",
"X  c #030A04",
"o  c #0B0A05",
"O  c #03030A",
"+  c #0B040B",
"@  c #0A090B",
"#  c #020D0C",
"$  c #140000",
"%  c #160A0A",
"&  c #1B150D",
"*  c #020213",
"=  c #090212",
"-  c #030A10",
";  c #0B0B10",
":  c #171918",
">  c #0F0D13",
",  c #251913",
"<  c #22160A",
"1  c #262218",
"2  c #35281A",
"3  c #251F21",
"4  c #2A2825",
"5  c #342926",
"6  c #3A3726",
"7  c #3F2F30",
"8  c #383736",
"9  c #402C14",
"0  c #433529",
"q  c #59312B",
"w  c #4A3C39",
"e  c #463A32",
"r  c #533D37",
"t  c #59452D",
"y  c #514039",
"u  c #654B3B",
"i  c #784935",
"p  c #615536",
"a  c #7A4C34",
"s  c #67633D",
"d  c #484242",
"f  c #524942",
"g  c #595553",
"h  c #5F5A47",
"j  c #654D49",
"k  c #695646",
"l  c #795846",
"z  c #6E5852",
"x  c #6A6456",
"c  c #7C6B58",
"v  c #746A58",
"b  c #7E7458",
"n  c #706E4B",
"m  c #4C5B60",
"M  c #7D7966",
"N  c #803F23",
"B  c #934D1B",
"V  c #AE5211",
"C  c #B85B19",
"Z  c #BE681B",
"A  c #844B2C",
"S  c #8E4E2A",
"D  c #844D33",
"F  c #88563D",
"G  c #9C5B3B",
"H  c #975637",
"J  c #95532C",
"K  c #A85927",
"L  c #A25C3C",
"P  c #A75932",
"I  c #B0552E",
"U  c #986831",
"Y  c #A76434",
"T  c #B56634",
"R  c #BA7A38",
"E  c #AB6625",
"W  c #D45C12",
"Q  c #C5631B",
"!  c #DE6C1A",
"~  c #D76716",
"^  c #DA7419",
"/  c #CD6A0E",
"(  c #E46E0F",
")  c #FE6C0D",
"_  c #F77B09",
"`  c #E7691B",
"'  c #E9791A",
"]  c #F57B13",
"[  c #F4751C",
"{  c #FD731D",
"}  c #FB7B1A",
"|  c #FB7917",
" . c #ED7E0B",
".. c #C76725",
"X. c #D36925",
"o. c #CD7826",
"O. c #D77528",
"+. c #C56831",
"@. c #C87A34",
"#. c #EA6921",
"$. c #E67B26",
"%. c #FC7726",
"&. c #8A5F49",
"*. c #83644A",
"=. c #87684A",
"-. c #9A6643",
";. c #9B7347",
":. c #836855",
">. c #86755D",
",. c #8A7456",
"<. c #967856",
"1. c #AC7344",
"2. c #B57C47",
"3. c #A67656",
"4. c #BB7857",
"5. c #A46E52",
"6. c #8D7B6A",
"7. c #927A62",
"8. c #8A776F",
"9. c #C27F48",
"0. c #D98519",
"q. c #D68917",
"w. c #FD830B",
"e. c #F98C0B",
"r. c #F78909",
"t. c #EF9409",
"y. c #F4990D",
"u. c #FE9C0D",
"i. c #FB9307",
"p. c #EE8313",
"a. c #EE8C1C",
"s. c #EA8719",
"d. c #F48414",
"f. c #FE8614",
"g. c #FD8C12",
"h. c #F3841B",
"j. c #FD851D",
"k. c #F48B1D",
"l. c #FF8D1C",
"z. c #F28E12",
"x. c #EE9618",
"c. c #F59413",
"v. c #FD9413",
"b. c #F69A16",
"n. c #FF9B13",
"m. c #F8981B",
"M. c #FBA10C",
"N. c #FDA315",
"B. c #FEA21B",
"V. c #F9A717",
"C. c #DB8725",
"Z. c #CE8F38",
"A. c #E48B23",
"S. c #E68C2B",
"D. c #E98826",
"F. c #F38A23",
"G. c #F78526",
"H. c #E99427",
"J. c #FC9623",
"K. c #F69B23",
"L. c #FC9C23",
"P. c #F4932E",
"I. c #F69929",
"U. c #E48B38",
"Y. c #F58D34",
"T. c #ED9736",
"R. c #F99B35",
"E. c #EFA220",
"W. c #FAA325",
"Q. c #F3A739",
"!. c #AF8759",
"~. c #97836C",
"^. c #8C8572",
"/. c #978675",
"(. c #98927A",
"). c #948A67",
"_. c #AC8D6D",
"`. c #A78664",
"'. c #B9976A",
"]. c #A8957B",
"[. c #B69371",
"{. c #A28275",
"}. c #B9A779",
"|. c #C78643",
" X c #CD9544",
".X c #D5974C",
"XX c #CD9352",
"oX c #D69955",
"OX c #D2895D",
"+X c #E79B48",
"@X c #E49F5C",
"#X c #DFA855",
"$X c #F4A345",
"%X c #E8A348",
"&X c #C49B6C",
"*X c #C99C68",
"=X c #C08D70",
"-X c #CB9371",
";X c #CAA374",
":X c #C7AA7D",
">X c #D7A977",
",X c #D8B47C",
"<X c #CDA66B",
"1X c #E2B677",
"2X c #B09786",
"3X c #BEAC93",
"4X c #C5AC85",
"5X c #CDA486",
"6X c #D9B481",
"7X c #DDBC8F",
"8X c #CBB594",
"9X c #D7B893",
"0X c #D1AB8B",
"qX c #E4BA8C",
"wX c #E4B787",
"eX c #E4BD9E",
"rX c #CEBEA5",
"tX c #DDC096",
"yX c #EAC188",
"uX c #EAC398",
"iX c #F2CF9D",
"pX c #FBD692",
"aX c #DBC3A1",
"sX c #EAC8A5",
"dX c #F3D6AC",
"fX c #FDDCAB",
"gX c #FDD7A8",
"hX c #FBDFB3",
"jX c #E9D1A1",
"kX c #FCE7AA",
"lX c #FDE4B3",
"zX c #FFEAB5",
"xX c #FEE6BB",
"cX c #FFECBB",
"vX c #FEF1BD",
"bX c #F8DFC1",
"nX c #FFEDC3",
/* pixels */
"                  .             X         X     O   X                                     ",
"                @       O   .   .       O O     @     .       .                           ",
"                  X   o                           .   .                                   ",
"                X X         @                   X       O                                 ",
"                    . . . . O O . . . o o . . . - O O   O                                 ",
"                  .     & ,       X         X           .                                 ",
"                  .   < >.>.7.,.*.7.~.].].{.7.l c t 9 0 w                                 ",
"                    . c 8X:XlXiXfXcXcXvXvXcXcXdX5X`.`.`.~.. %                             ",
"                O   1 tX[.:XxXlXxXxXsXgXiXfXgXqX<X6XfXyX*Xb   o   * X   O X               ",
"                  . % =.5X6XwX>XyXuX'.!.'.&X;X;X>X*X;X>X4.u e u   *     . .               ",
"                X   2 9XeXsX9XuX7X_.9XhXdXuX7XdXlXfX&X2.T ;.rX_.2   X         O           ",
"                X   5 8X4XnXxXlXlXjXxXcXlXlXzXlXbXbXuX@X+XU >.u n 4     # X               ",
"                .   5 8X:XkXkXkXxXhXlXhXzXkXfXgXlXzXpX X.X-.t <.`.f O o                   ",
"                    3 8X'.iX7XqX7X:XtXtX6X,X>X>X1XwX;XOXOXL N T ..1.j     O O             ",
"                  X 4 4X2.9.P T L G G -.G S G L U U F G H F :.5.~ S.1.v O *               ",
"                +   1 ,X..$.! ( ~ ^ $.^ ^ D.O.O.#.~ ` W C -.x M _.q.U.!.  = . X           ",
"                  $ 2 aXo.l.G.%.{ p.Y.Y.L.P.F.[ ) ) { P.X.3.c   (.=Xx.@.^.                ",
"                - X X 6  XH.U.$._ G.$.^ p.D.A.R.D.' ~ C.Z `.~.X   F T.U.6.  . X           ",
"                  .   , oXk.` j._ ' D.U.Y.J.K.Q.A.} ! ' C _.{.    <.%XS.:.  X             ",
"                  . O 5 XXa.k.r.J.R.Q.$XD.i.e.$.h.| %.` ..`.>..   6..XH.*.X O             ",
"                  = O 4 &XS.W.c.I.$XH.z.z.M.e.j.c.g.} [ |.t   @ O /.oXI.*.  O .           ",
"                  =   e >X0.B.B.T.S.x.v.v.V.b.l.V.t.d.} R c   +   /.XXH.=.X O             ",
"                . X X 6 ,Xq.W.V.S.q.L.L.g.x.E.L.N.y.c.} R ~.. >   /..XC.*.  * .           ",
"                  O   w wXC.R.E.H.x.W.y.c.Y.P.b.n.n.x.[ 2.^.  ;   6.Z.o.:.  O             ",
"                  O X e yXC.L.V.B.D.S.L.B.S.T.v.n.c.u.j.4.).  o   ^.#XI ].* o             ",
"                . O   e wXA.K.K.B.m.a.n.u.K.K.i.v.k.z.p.2.M . .   =.E.&.3XO . .           ",
"                  @   0 wX0.J.' c.y.m.m.u.M.n.v.c.g.j.d.!.n   = z %XE =.&                 ",
"                  X   e >X0.k.G.R.x.I.a.n.M.n.v.y.v.) w.E 8.sX4XXX+.=.3X  X X .           ",
"                    . 7 -X0. .G.R.S.T.D.B.N.m.v.n.r.{ [ +.i R Z.Z &.2X@ . # X +           ",
"                X     5 ;X/ h.j.s.A.T.P.N.N.b.v.V.t.{ ` ..B ..T 3.).> X     . O           ",
"                    X d 0XC ' ] g.k.s.F.v.n.c.r.l.f.) ! C k `.v 8., X . X   +             ",
"                  O   : =.K ~ | w.e.s.h.v.e.l.f.d.p.( T F x *.8   O $ +     X             ",
"                X   o   w -XV $.%.v.i.i.i._ ] z.J._ ~ H ,.[.    @ X                       ",
"                +   . X : p E ~ _ i.i.F.l.w.| G.g.] Q J ^.4 O ; O X                       ",
"                  O   . O d <.B #.G.F.F.p.f.j._ ' O.B G (.  %                             ",
"                X     @   w =.A C Q Q ....X.../ ..K D -.,.  . X                           ",
"                X       r OX+.I K C.0.X.X.Q C X.#.X.A A Y v   -                           ",
"                  o . X 5 ;.B t i Y @.U.$.^ o.O.W Q D i A 0                               ",
"                X   @   4 2X,.g f q q l a a a A i t r 8 r 8 * X                           ",
"                X .   X   2 :.e j 3.<.b :.c h j g m z k z : O X                           ",
"                                , n s p j r ,.}.'.<.<.>.6 . X                             ",
"                                O .     + . % w 0 , , , .                                 ",
"                                O   @ O + ;     O         .                               ",
"                                            X                                             ",
"                                    O O X   X   .                                         "
};
