/* XPM */
static char *_9a9ec32517e4757c8daf2376772304aaF0MtGqx0qrcJtWr[] = {
/* columns rows colors chars-per-pixel */
"50 50 104 2 ",
"   c #F3F3F3",
".  c #F9F9F9",
"X  c #FCC78D",
"o  c #FFCA8F",
"O  c #F4F4F4",
"+  c #3F51B6",
"@  c #F1F1F1",
"#  c gray95",
"$  c #F64336",
"%  c #010102",
"&  c #4052B9",
"*  c gray97",
"=  c #0A0302",
"-  c #F94437",
";  c gray90",
":  c #0B0909",
">  c gray96",
",  c #DDDDDD",
"<  c #F84436",
"1  c #140E0A",
"2  c #5F4338",
"3  c #D8AB79",
"4  c #131313",
"5  c #303E8B",
"6  c #222323",
"7  c #F04135",
"8  c #836749",
"9  c #44120E",
"0  c #2D2D2D",
"q  c #959595",
"w  c #797878",
"e  c #BB3329",
"r  c #513F2F",
"t  c #27316F",
"y  c #939393",
"u  c #E84033",
"i  c #CFCECE",
"p  c #E7B782",
"a  c #7C5749",
"s  c #0B1026",
"d  c #604C36",
"f  c #79211B",
"g  c #922A22",
"h  c #473226",
"j  c #362A1F",
"k  c #F7C38A",
"l  c #F2BF87",
"z  c #7A5648",
"x  c #785447",
"c  c #A12C23",
"v  c #291E18",
"b  c #C0352A",
"n  c gray65",
"m  c #373535",
"M  c #231813",
"N  c #745144",
"B  c #CBA172",
"V  c #4E4949",
"C  c gray54",
"Z  c #EDEDEC",
"A  c #69493E",
"S  c #967855",
"D  c #360E0B",
"F  c #30241C",
"G  c #EFEFEF",
"H  c #3E50B4",
"J  c #B6B5B5",
"K  c #5E5D5D",
"L  c #87251E",
"P  c gray80",
"I  c #726964",
"U  c #DC3C30",
"Y  c #C39A6D",
"T  c #1F2657",
"R  c #3C4DAE",
"E  c #2D3982",
"W  c #6B5842",
"Q  c #141A3D",
"!  c #8F8E8D",
"~  c #2B0A09",
"^  c #776044",
"/  c #631D17",
"(  c #BA9469",
")  c #B48F66",
"_  c #888888",
"`  c #394AA7",
"'  c #C2C2C3",
"]  c #FB4537",
"[  c gray59",
"{  c #BCBCBC",
"}  c #B43128",
"|  c #A1805B",
" . c #969695",
".. c #D43A2F",
"X. c #711F1A",
"o. c #363862",
"O. c #FD4538",
"+. c #8E3329",
"@. c #711E18",
"#. c #474B65",
"$. c #464A64",
"%. c #6D2429",
"&. c #AD8A62",
"*. c #F9C78F",
/* pixels */
"> # #   @   # # O @     @ O # #   @ O # # > > * * > * > O   @ O # # O @     # O @     @ O # #   @ O ",
"#     #   #     #   # #   #     #   # O > , y _ _ C _ y , > O #     #   #     #   # #   #     #   # ",
"#     #   #     #   # #   #     #   G ; ; J 4 % = = % 4 J ; ; G     #   #     #   # #   #     #   # ",
"  # #   #   # #   #     #   # #   * ' m 0 m 2 2 2 2 2 2 m 0 m { .     #     #   #     #   # #   #   ",
"@     #   #     #   # #   #     G J w v M j x a a a a x j M v w J G #   #     #   # #   #     #   @ ",
"  # #   #   # #   #     #   # @ ; m M x z z z z z x x z z z x M m ; @ #     #   #     #   # #   #   ",
"#     #   #     #   # #   # > J V r 2 z a a z z N v h a z z a 2 r V J > #     #   # #   #     #   # ",
"#     #   #     #   # #   # * y % 2 a z A 2 x a A : v 2 N N 2 N 2 % y * # #   #   # #   #     #   # ",
"O # #   #   # #   #     #   * [ % 2 a z v 4 N a A : % : A r = 2 2 % [ >   # #   #     #   # #   # O ",
"@     #   #     #   # # O ; w V h F v F ^ 8 F 2 A : h S h r S r F h V w ;     #   # #   #     #   # ",
"  # #   #   # #   #     O , 6 M A j v v ( 3 j h 2 F 8 k r W X d j A M 6 , O #   #     #   # #   #   ",
"  # #   #   # #   #     O , 6 % 1 ) p p k X l W M B l o l l o l ) 1 % 6 , O #   #     #   # #   #   ",
"@     #   #     #   # # O , 6 F 8 p 3 8 8 8 ^ 8 8 l B ^ 8 8 8 3 p 8 F 6 , O   #   # #   #     #   # ",
"O # #   #   # #   #       , 6 d o o ( 4 1 1 1 S o o S 1 1 1 4 ( o o d 6 , O #   #     #   # #   # O ",
"#     #   #     #   # # O , 6 d o o l 3 3 3 3 p X X p 3 3 3 3 l o o d 6 , O   #   # #   #     #   # ",
"#     #   #     #   # #   ; w I | p o o ( &.k o X X o X o X o X p | I w ;     #   # #   #     #   # ",
"  # #   #   # #   #     #   * q : Y o X d j p l l X X X X X X o Y : q *   # #   #     #   # #   #   ",
"@     #   #     #   # #   # . q : Y o X 3 | h j r p o X X X X o Y : q . # #   #   # #   #     #   @ ",
"O # #   #   # #   #     # Z { I = 8 B X o 3 r h d p X X X X X B 8 = I { Z   #   #     #   # #   #   ",
"#     #   #     #   # #   , 0 % % % r k X X k k k X X X X X k r % % % 0 ,     #   # #   #     #   # ",
"#     #   #     #     * n V +.c c c +.r r ^ k o o o o l ^ r r +.c c c +.V n *     # #   #     #   # ",
"O # #   #   # #   # Z P I D U ] - O.b ~ ~ h Y B B B B Y h ~ ~ b O.- ] U D I P Z #     #   # #   # O ",
"@     #   #     # > i 6 f u 7 $ < $ 7 u u e 1 : : : : 1 e u u 7 $ < $ 7 u f 6 i > # #   #     #   @ ",
"  # #   #   # #   > P 4 f - < b X...< $ < U g L L L L g U < $ < ..X.b < - f 4 i >     #   # #   #   ",
"  # #   #   # #   > P 4 f < - g = e - $ $ $ - - - - - - $ $ $ - e = g - < f 4 P >     #   # #   #   ",
"#     #   #     # > P 4 f < - g = e < $ $ $ $ $ $ $ $ $ $ $ $ < e = g - < f 4 P > # #   #     #   # ",
"O # #   #   # #   O i 4 f - - g = e - $ $ $ $ $ $ $ $ $ $ $ $ - e = g - - f 4 i O     #   # #   # O ",
"#     #   #     # > P 4 @.u $ c 1 } 7 $ $ $ $ $ $ $ $ $ $ $ $ 7 } 1 c $ u @.4 P > # #   #     #   # ",
"  # #   #   # #   > P 4 = 9 U u e 9 / 7 $ $ $ 7 $ $ $ 7 $ $ 7 / 9 e u U 9 = 4 P >     #   # #   #   ",
"  # #   #   # #   O , K 0 = L b 7 D 9 7 $ $ $ $ $ $ $ $ $ $ 7 9 D 7 b L = 0 K , O     #   # #   #   ",
"@     #   #     #   # O w % % / u D 9 7 $ $ $ $ $ $ 7 7 7 7 u 9 D u / % % w > #   # #   #     #   @ ",
"O # #   #   # #   #   > w : S 8 9 = 9 $ - < < < < O.c 9 9 9 9 = = 9 8 S : w >   #     #   # #   # O ",
"#     #   #     #   # > w 1 3 ) j : D } e e e e e b %.s s s s % : j ) 3 1 w > #   # #   #     #   # ",
"#     #   #     #   # > w 1 3 X p j % = = = = = = = T R R R R s j p X 3 1 w > #   # #   #     #   # ",
"O # #   #   # #   #   O ' ! W d d o.t t t t t t t t 5 + + + + E o.d d W ! '     #     #   # #   #   ",
"@     #   #     #   # # > ; V 4 % 5 & & & & & & & & & + + + + & 5 % 4 V ; >   #   # #   #     #   @ ",
"  # #   #   # #   #     # @ ; _ % 5 & + + + + + + + + + + + + & 5 % _ ; @   #   #     #   # #   #   ",
"                        #   * q % 5 & + + + + + + + + + + + + & 5 % q *   #                         ",
"#     #   #     #   # #   # * y % 5 & + + + + R ` ` R + + + + & 5 % y * #     #   # #   #     #   # ",
"O # #   #   # #   #     #   >  .% 5 & + & & & T : : T & & & + & 5 % q >     #   #     #   # #   # O ",
"@     #   #     #   # #   # * y % 5 & + 5 t t $.K K #.t t 5 + & 5 % y * #     #   # #   #     #   # ",
"  # #   #   # #   #     #   * q % E H H Q % : ! * * ! : % Q H H E % q *     #   #     #   # #   #   ",
"  # #   #   # #   #     #   * q % s T H Q 6 n , O   , n 6 Q H T s % q >     #   #     #   # #   #   ",
"@     #   #     #   # #   # * y % % s E s 0 ; > #   O ; 0 s E s % % y * #     #   # #   #     #   @ ",
"O # #   #   # #   #     #   > [ % % % % % 0 ; O   # O ; 0 % % % % % q >     #   #     #   # #   # O ",
"#     #   #     #   # #   # * y % % % % % 0 ;   #     ; 0 % % % % % y * #     #   # #   #     #   # ",
"#     #   #     #   # #   # > n 0 : % % 6 K ;   #     ; K 6 % % : 0 n > #     #   # #   #     #   # ",
"  # #   #   # #   #     #   # Z , m % % y Z @     #   @ Z q % % m , Z #     #   #     #   # #   #   ",
"@     #   #     #   # #   #     G n _ C i O   # #   #   > i C _ n G     #     #   # #   #     #   @ ",
"O # #   @   # # O #     # O # #   > * * O   @     # O #   > > * > #   @     # O #     @ O # #   @ O "
};
