/* XPM */
static char *e2a77dbf4ebe4a43902b80aff3729ad7jC70c1muWXNl3z8L[] = {
/* columns rows colors chars-per-pixel */
"36 74 219 2 ",
"   c #010101",
".  c #090304",
"X  c #000900",
"o  c #0A0804",
"O  c #02040A",
"+  c #0A0509",
"@  c #0C0B0C",
"#  c #03090C",
"$  c #130A0A",
"%  c #1A100D",
"&  c #13110C",
"*  c #050612",
"=  c #140E13",
"-  c #141313",
";  c #1A1514",
":  c #1C1B1B",
">  c #191716",
",  c #0F1513",
"<  c #250401",
"1  c #2C0300",
"2  c #2D0D03",
"3  c #340C02",
"4  c #2E1006",
"5  c #341105",
"6  c #3B1002",
"7  c #34140A",
"8  c #35190C",
"9  c #391308",
"0  c #211411",
"q  c #231C1B",
"w  c #261816",
"e  c #351C12",
"r  c #3E1B11",
"t  c #341815",
"y  c #29231D",
"u  c #382418",
"i  c #2C2322",
"p  c #2B2B2A",
"a  c #242225",
"s  c #332522",
"d  c #392B27",
"f  c #332A29",
"g  c #3B2E2A",
"h  c #342927",
"j  c #39312F",
"k  c #37392E",
"l  c #2E2E38",
"z  c #333333",
"x  c #3C3B3C",
"c  c #393636",
"v  c #3E2D33",
"b  c #400F0A",
"n  c #43281D",
"m  c #402420",
"M  c #43342D",
"N  c #48372D",
"B  c #453C3C",
"V  c #483A3A",
"C  c #55453E",
"Z  c #514334",
"A  c #684638",
"S  c #373D41",
"D  c #423E4C",
"F  c #444242",
"G  c #4D4643",
"H  c #4B4A4D",
"J  c #48464C",
"K  c #5B4B44",
"L  c #564945",
"P  c #59534D",
"I  c #555554",
"U  c #53545B",
"Y  c #5C5B5C",
"T  c #575658",
"R  c #484850",
"E  c #615D5E",
"W  c #755956",
"Q  c #65564A",
"!  c #776957",
"~  c #5A4F60",
"^  c #5B5B63",
"/  c #565662",
"(  c #625C61",
")  c #5D6066",
"_  c #5D626B",
"`  c #5D6D62",
"'  c #636265",
"]  c #63656B",
"[  c #636A6E",
"{  c #6A6A6D",
"}  c #7B6E69",
"|  c #76706D",
" . c #636A73",
".. c #686C75",
"X. c #6D747B",
"o. c #6C7279",
"O. c #727274",
"+. c #71757B",
"@. c #7A777E",
"#. c #98733E",
"$. c #855E41",
"%. c #866E46",
"&. c #8C6F5D",
"*. c #92715E",
"=. c #866963",
"-. c #8B7368",
";. c #987566",
":. c #8C7A73",
">. c #877C78",
",. c #957C73",
"<. c #BA893A",
"1. c #CD8B1B",
"2. c #F5A919",
"3. c #C18F38",
"4. c #EC9A2A",
"5. c #FDA523",
"6. c #FFAD24",
"7. c #FBA52C",
"8. c #A98245",
"9. c #B59044",
"0. c #9A8173",
"q. c #96857D",
"w. c #8E8179",
"e. c #A7867A",
"r. c #C68C45",
"t. c #716F84",
"y. c #6E7A81",
"u. c #6F7986",
"i. c #747A84",
"p. c #7A7D84",
"a. c #757E88",
"s. c #837E83",
"d. c #6E8189",
"f. c #74838D",
"g. c #7A848D",
"h. c #7B8A8E",
"j. c #748592",
"k. c #7A8691",
"l. c #758A95",
"z. c #7C8A94",
"x. c #758C99",
"c. c #7B8D9A",
"v. c #6F8593",
"b. c #8A8585",
"n. c #9A8C84",
"m. c #818B94",
"M. c #888C96",
"N. c #988A92",
"B. c #9A9696",
"V. c #899297",
"C. c #A88886",
"Z. c #AB9486",
"A. c #A5948C",
"S. c #AA958A",
"D. c #B3978A",
"F. c #B8998B",
"G. c #A79A95",
"H. c #BA9D92",
"J. c #B6A183",
"K. c #AEA49C",
"L. c #BCA597",
"P. c #A99EA4",
"I. c #AAA9A9",
"U. c #B5AAA4",
"Y. c #B9A9A2",
"T. c #BBB3AF",
"R. c #B9B7B5",
"E. c #C29D94",
"W. c #C1A28E",
"Q. c #C3AA9D",
"!. c #C6A899",
"~. c #C9B39D",
"^. c #CCB3A4",
"/. c #C7B4AA",
"(. c #DCBDAA",
"). c #D4B8A8",
"_. c #C0BCB1",
"`. c #D9C1AB",
"'. c #DEC5B5",
"]. c #E5C4AD",
"[. c #EACAB6",
"{. c #E5C8B6",
"}. c #F1CDB6",
"|. c #F3D3BD",
" X c #F8D9BC",
".X c #E8D0B8",
"XX c #C8C7C6",
"oX c #D5D3D3",
"OX c #DCD6D7",
"+X c #D3CDCF",
"@X c #E7CEC1",
"#X c #EDD2C1",
"$X c #F4D4C6",
"%X c #FDDBC5",
"&X c #FCDCCA",
"*X c #F8D8C5",
"=X c #E1DCDA",
"-X c #FEE3CD",
";X c #FFE1C6",
":X c #FDE4D2",
">X c #FFEBDB",
",X c #FFEAD3",
"<X c #EFF3DC",
"1X c #FFF1DB",
"2X c #D5D5E1",
"3X c #DCE0E1",
"4X c #EBE9EB",
"5X c #E5E5E5",
"6X c #F9F9EC",
"7X c #EEEEF2",
"8X c #F4F4F5",
"9X c #FAF5F6",
"0X c #F5FBF6",
"qX c #FDFAF6",
"wX c #F4F7FC",
"eX c #F5FCFC",
"rX c #FDFDFD",
"tX c #FFF6F9",
"yX c #F5EDF0",
/* pixels */
"                O                                   O                   ",
"                    . o     O   O # O O @ @   @     O   .               ",
"                        O O O O @ - $ q q y w s o                       ",
"                    O O q & w s e e e 8 2 r r 9 w                       ",
"                    O   d t 7 4 3 3 3 3 3 3 3 6 s         .             ",
"                  O = i 8 3 3 3 3 3 9 5 3 5 9 3 t q .                   ",
"                    + s 2 3 6 5 3 < < 7 2 < < 5 t s @                   ",
"                      t 5 3 3 < r ;.H.!.!.D.A 1 m 0     .     O         ",
"                    O % 5 b 1 Z [.1X:X;X:X>X:XQ : @                     ",
"                    O 0 5 3 r .X%XZ.).%X#X~.&X:.                        ",
"                    O h 8 1 W -Xe.-.^.&X{.&.W.q.                        ",
"                    O i 8 < =.-X].'.[.-X#X].|.,.                        ",
"                    O ; u < e.,X;.n $X}.:XA *.S.                        ",
"                    O L '.A ).-X}.Q.*X|.&X(.|.,.                        ",
"                  .   q.1X$X&X X&X:X&X&X:X-X:X!                         ",
"                      d ~.[.$X X|.0.H.W.Z.(.&XK                         ",
"                  O O   q M ).-X&XZ.G.2Xb.'.`.0                         ",
"                          N :X[..X>X^.D.(.-XQ                           ",
"                        s ^.&X}.-.Z.:X-X%XW   O                         ",
"                    : P A.>X}.;X=.  c P i O O                           ",
"                  H oXrXK.L.:X].q.H O O # O O                           ",
"                F 4XrXrXqXn.@X!.oX8Xp     +                             ",
"              > +XrXrX8XrXyXw.n.0XqXB.o                                 ",
"              { rXrXwXrXrXrXT.+XeXrXoX* O .   O                         ",
"        O     R.rXqXrXrXrXrXrXrX0XrX7Xz   .   O   +     . .   J S O     ",
".           : 5XrXeX8XrXrXrXrXqXrXoX8XH               O O ~ M.rX<XG .   ",
"O   .     O c rXrX5XI.rXrXrXeXrXrXB.9XY             .   k yXtX6X0X4X^ O ",
"O       o   J rXrXOXR.rXeXrXeXrXeXI.rX|             O O ` eX9XwXeXrXI.@ ",
"O           E rXrX=XR.rXeXrXrXeXrXB.U.P   O O .     @ g I ! 8.;.'.! B   ",
"O           P Y.Y.n.T.eXrXeXeXrXrXA.).:.  O O O O C ^.E.W #.6.4.1.9.V O ",
"        O   W @X{./.T.rXwXrXrX9XqXY.@XD.. & & o y `.L.C.N.%.5.5.6.<.J O ",
"      O O   C :X-X)./.rXrXrXrXqXeX_.^.&XQ.L.L.Q.'.;X-.F.>.%.7.2.2.9.D   ",
"            G %X&X(.U.rXrXrXrXqXrXXXQ.&X&X;X&X-X&X,XC.J.} $.2.5.2.8.z O ",
"O           G &X&X`.U.rXqXrXrXqXrXOXH.>X%X*X:X&X].~.W ! } ,.3.r.r.J.c   ",
"O           Z %X&X{.K.rXeXrXrXrXrXyX:.Q.Q.S.-.K z O O = l t.A.P.G.b.-   ",
"            c |.%X[.G.rXqXrXrXrXrXrXI   o     .   .       X   , #     . ",
"    O O     f |.%X|.G.rXrXrXrXrXrXrXO.        O   . . O     O O     o O ",
"    O       a [.%X*XG.eXrXrXrXrXqXqXs..   O . O       O     O           ",
"          O > (.%X%XA.8XrXrXrXrXrXqXN.            .     . .   + O .   X ",
"          O @ ^.&X%XA.8XrXeXrXrX0XrXR.@   O     O       . O X           ",
"  .       O o L.&X&XD.7XrXrXqXrXrXrX4Xp                                 ",
"          O . Z.&X*XD.XX4X3X=X+XR.B.O.@                                 ",
"          O . q.-X&XD.U { [ { [ [ X.O.:                                 ",
"          O   ,. X-XL...V.k.p.a.z.z.p.a                                 ",
"          O   0.-X&X!.) z.c.]  .c.f.g.x                                 ",
"          O . D.&X:X~.[ g.v.+.) x.f.g.x   .                             ",
"  O         y Q.'.).D...c.x.O.' c.f.m.R                                 ",
"  O     . O c F.H.H.0.X.z.l.O.Y z.z.g.T                                 ",
"O   O       ; | ,.>.{ g.z.j.+.Y z.j.z.U                                 ",
"              % u { g.g.f.j.i.E z.f.z.)       O                         ",
"                > X.z.f.l.l.u.E z.f.z._ +                               ",
"                : y.z.f.z.l.X.( z.f.z.)                                 ",
"            O   : +.z.f.f.z.y.Y z.j.z.[ @                               ",
"              O i i.k.f.f.z.y.Y z.f.z.o.>                               ",
"                > X.k.m.g.k.o.' z.f.g.X.:                               ",
"    O       .   : a.j.f.f.c.o.' z.f.k.o.>                               ",
"                i a.g.g.j.z.{  .m.f.z...=                               ",
"                p g.g.g.j.m.{  .z.f.z.^                                 ",
"                z z.j.f.j.m.] o.m.f.z.] +     O                         ",
"                F z.f.g.j.m.) X.z.f.m.] $     O                         ",
"                H z.f.g.j.m.^ i.k.j.m.Y                                 ",
"                ^ c.f.g.l.z.Y a.k.f.m.U                                 ",
"              - { z.f.g.j.g.Y g.z.d.z.U .     O                         ",
"              : +.z.f.g.l.g.Y g.k.f.z.R                                 ",
"              p d.z.f.l.k.p./ m.f.k.g.H                                 ",
"              z k.g.z.d.k.i.) z.f.g.m.x                                 ",
"              z g.g.g.d.z.[ ..h.l.u.g.S   .                             ",
"              x z.k.k.l.z._  .z.j.k.g.a                                 ",
"              T x.f.k.f.f.X.^ m.k.m.M.{ q .                             ",
"            @ ' l.z.g.g.g.s.( { g.] G F V >                             ",
"              F h.@.T J x V M h x B V L V B >                           ",
"              - x v V C G L K N h g M g d i                             ",
"                  ; i j c j i q                                         ",
"                                                                        "
};
